<mxfile host="drawio-plugin" modified="2023-12-24T10:42:51.164Z" agent="5.0 (X11; Linux x86_64) AppleWebKit/537.36 (KHTML, like Gecko) Chrome/111.0.0.0 Safari/537.36" etag="ElKcu_X5FyetEi53HWoa" version="20.5.3" type="embed"><diagram name="Page-1" id="N4pvFS580xxAC82tfR0J"><mxGraphModel dx="566" dy="428" grid="0" gridSize="10" guides="1" tooltips="1" connect="1" arrows="1" fold="1" page="0" pageScale="1" pageWidth="850" pageHeight="1100" math="0" shadow="0"><root><mxCell id="0"/><mxCell id="1" parent="0"/><mxCell id="mg9PWS6bn7RSnFFwY5iz-5" value="" style="rounded=1;whiteSpace=wrap;html=1;fillColor=none;dashed=1;" parent="1" vertex="1"><mxGeometry x="190" y="90" width="340" height="267" as="geometry"/></mxCell><mxCell id="mg9PWS6bn7RSnFFwY5iz-10" style="edgeStyle=orthogonalEdgeStyle;rounded=0;orthogonalLoop=1;jettySize=auto;html=1;" parent="1" source="mg9PWS6bn7RSnFFwY5iz-1" target="mg9PWS6bn7RSnFFwY5iz-7" edge="1"><mxGeometry relative="1" as="geometry"/></mxCell><mxCell id="mg9PWS6bn7RSnFFwY5iz-1" value="Allocate" style="whiteSpace=wrap;html=1;aspect=fixed;" parent="1" vertex="1"><mxGeometry x="250" y="140" width="70" height="70" as="geometry"/></mxCell><mxCell id="mg9PWS6bn7RSnFFwY5iz-9" style="edgeStyle=orthogonalEdgeStyle;rounded=0;orthogonalLoop=1;jettySize=auto;html=1;entryX=0.5;entryY=0;entryDx=0;entryDy=0;" parent="1" source="mg9PWS6bn7RSnFFwY5iz-7" target="mg9PWS6bn7RSnFFwY5iz-8" edge="1"><mxGeometry relative="1" as="geometry"/></mxCell><mxCell id="mg9PWS6bn7RSnFFwY5iz-7" value="Batch" style="whiteSpace=wrap;html=1;aspect=fixed;" parent="1" vertex="1"><mxGeometry x="405" y="140" width="70" height="70" as="geometry"/></mxCell><mxCell id="mg9PWS6bn7RSnFFwY5iz-8" value="Order&lt;br&gt;Line" style="ellipse;whiteSpace=wrap;html=1;aspect=fixed;" parent="1" vertex="1"><mxGeometry x="405" y="253" width="70" height="70" as="geometry"/></mxCell></root></mxGraphModel></diagram></mxfile>